<?xml version="1.0" standalone="no"?>
<!DOCTYPE svg PUBLIC "-//W3C//DTD SVG 20010904//EN"
 "http://www.w3.org/TR/2001/REC-SVG-20010904/DTD/svg10.dtd">
<svg version="1.0" xmlns="http://www.w3.org/2000/svg"
 width="2000.000000pt" height="2000.000000pt" viewBox="0 0 2000.000000 2000.000000"
 preserveAspectRatio="xMidYMid meet">

<g transform="translate(0.000000,2000.000000) scale(0.100000,-0.100000)"
fill="#000000" stroke="none">
<path d="M2045 11278 c-62 -22 -105 -81 -105 -145 0 -27 136 -377 459 -1186
253 -631 467 -1159 476 -1173 26 -39 98 -67 152 -59 90 13 92 16 297 530 106
265 186 479 186 498 0 19 -114 317 -286 747 -305 760 -310 770 -384 790 -48
14 -756 12 -795 -2z"/>
<path d="M3380 11268 c-56 -29 -81 -64 -87 -121 -5 -42 30 -135 457 -1201 254
-636 470 -1166 481 -1180 28 -36 95 -59 147 -51 88 13 93 21 297 529 129 321
185 471 185 498 0 28 -83 244 -286 750 -157 392 -293 722 -301 735 -8 12 -34
31 -57 43 -40 19 -60 20 -417 20 -369 0 -375 0 -419 -22z"/>
<path d="M4723 11279 c-66 -19 -125 -113 -108 -172 4 -12 214 -541 467 -1174
507 -1272 476 -1204 571 -1218 54 -8 126 20 151 58 25 38 376 917 382 957 4
29 -43 154 -286 760 -161 399 -299 734 -308 744 -10 10 -35 27 -57 37 -37 17
-71 19 -410 18 -203 0 -384 -5 -402 -10z"/>
<path d="M9701 11057 c-49 -19 -108 -72 -133 -120 -29 -55 -31 -155 -4 -210
91 -185 355 -182 436 5 26 60 24 151 -3 205 -21 40 -70 89 -110 110 -41 21
-143 26 -186 10z"/>
<path d="M7150 10745 l0 -275 -95 0 -95 0 0 -190 0 -190 95 0 95 0 0 -291 c0
-323 6 -365 63 -474 18 -33 62 -90 98 -126 115 -116 248 -162 447 -157 l107 3
3 203 2 202 -105 0 c-115 0 -148 10 -184 56 -20 26 -21 38 -21 300 l0 273 153
3 152 3 3 193 2 192 -155 0 -155 0 -2 273 -3 272 -202 3 -203 2 0 -275z"/>
<path d="M8047 11013 c-4 -3 -7 -449 -7 -990 l0 -983 209 0 210 0 3 438 c3
432 3 438 26 487 48 105 123 154 233 155 80 0 152 -32 188 -85 48 -70 51 -108
51 -567 l0 -428 211 0 210 0 -3 508 c-4 445 -6 514 -21 567 -74 253 -243 385
-497 385 -167 0 -298 -58 -377 -165 l-22 -30 -1 358 0 357 -203 0 c-112 0
-207 -3 -210 -7z"/>
<path d="M12270 10659 l0 -362 -29 41 c-103 141 -367 197 -601 126 -219 -65
-399 -260 -466 -504 -25 -91 -25 -319 0 -409 40 -145 120 -279 222 -369 139
-124 347 -188 531 -164 151 21 247 67 310 151 l33 43 0 -86 0 -86 210 0 210 0
-2 988 -3 987 -207 3 -208 2 0 -361z m-186 -583 c60 -30 142 -111 177 -177 21
-38 24 -58 24 -144 0 -86 -3 -106 -24 -145 -57 -108 -130 -167 -241 -196 -171
-43 -337 31 -412 184 -30 60 -33 75 -33 157 0 77 4 98 27 147 28 60 99 138
152 165 98 51 235 55 330 9z"/>
<path d="M16480 10030 l0 -990 210 0 210 0 0 82 0 82 28 -37 c80 -105 221
-154 424 -144 188 8 315 63 443 193 156 157 221 335 212 574 -7 186 -57 322
-167 456 -133 162 -313 247 -525 247 -169 0 -315 -54 -382 -142 l-33 -42 -2
353 -3 353 -207 3 -208 2 0 -990z m914 41 c72 -35 132 -95 168 -169 33 -67 33
-225 1 -294 -116 -251 -484 -277 -634 -46 -131 204 -34 455 206 535 24 8 71
12 117 10 62 -3 89 -10 142 -36z"/>
<path d="M10820 10474 c-86 -28 -157 -76 -200 -136 l-30 -41 0 86 0 87 -210 0
-210 0 0 -715 0 -715 209 0 210 0 3 413 3 412 28 57 c67 137 228 207 415 180
l62 -9 0 204 0 203 -102 0 c-81 -1 -119 -6 -178 -26z"/>
<path d="M15422 10484 c-278 -61 -486 -271 -544 -551 -24 -115 -20 -294 7
-403 66 -255 253 -435 522 -502 114 -28 345 -30 467 -4 91 20 194 57 243 87
l33 21 0 184 0 185 -62 -35 c-105 -58 -222 -87 -379 -93 -121 -5 -145 -3 -207
16 -39 12 -90 36 -114 54 -45 34 -91 109 -101 164 l-6 33 517 2 517 3 3 117
c3 151 -14 236 -74 357 -39 78 -62 110 -133 181 -101 101 -185 149 -312 180
-100 24 -279 26 -377 4z m285 -349 c92 -27 172 -104 188 -182 l7 -33 -311 0
-311 0 6 28 c34 145 245 239 421 187z"/>
<path d="M9577 10463 c-4 -3 -7 -325 -7 -715 l0 -708 210 0 210 0 0 715 0 715
-203 0 c-112 0 -207 -3 -210 -7z"/>
<path d="M12852 10458 c3 -7 132 -347 288 -756 251 -655 286 -741 298 -725 7
10 110 193 229 406 188 339 217 386 228 370 6 -10 105 -187 220 -393 114 -206
213 -381 219 -387 8 -10 81 169 299 735 158 411 287 750 287 755 0 4 -91 7
-203 7 l-204 0 -123 -335 c-69 -184 -127 -335 -130 -335 -4 0 -89 149 -190
332 -147 266 -185 328 -194 316 -6 -8 -90 -158 -186 -332 -96 -174 -177 -316
-181 -316 -5 0 -42 98 -204 543 l-47 127 -205 0 c-160 0 -204 -3 -201 -12z"/>
</g>
</svg>
